<?xml version="1.0" encoding="utf-8"?><!DOCTYPE svg PUBLIC "-//W3C//DTD SVG 1.1//EN" "http://www.w3.org/Graphics/SVG/1.1/DTD/svg11.dtd"><svg version="1.1" xmlns="http://www.w3.org/2000/svg" xmlns:xlink="http://www.w3.org/1999/xlink" width="32" height="32" viewBox="0 0 32 32" data-tags="file-css"><g fill="#444" transform="scale(0.03125 0.03125)"><path d="M256.219 320h543.562c53.467 0 96.219 42.963 96.219 95.961v224.078c0 53.009-43.079 95.961-96.219 95.961h-543.562c-53.467 0-96.219-42.963-96.219-95.961v-224.078c0-53.009 43.079-95.961 96.219-95.961zM255.826 352c-35.25 0-63.826 28.806-63.826 63.745v224.511c0 35.205 28.875 63.745 63.826 63.745h544.348c35.25 0 63.826-28.806 63.826-63.745v-224.511c0-35.205-28.875-63.745-63.826-63.745h-544.348zM416 576c-0.101 35.73-28.786 64-64.156 64h-31.688c-35.551 0-64.156-28.739-64.156-64.189v-95.621c0-35.82 28.724-64.189 64.156-64.189h31.688c35.488 0 64.054 28.636 64.156 64h-32c0-17.676-14.165-32-31.967-32h-32.067c-17.655 0-31.967 14.199-31.967 31.994v96.012c0 17.67 14.165 31.994 31.967 31.994h32.067c17.655 0 31.967-14.199 31.967-31.994l32-0.006zM512.156 416c-35.432 0-64.156 28.407-64.156 64 0 35.346 28.407 64 64 64h31.7c17.839 0 32.3 14.204 32.3 32 0 17.673-14.165 32-31.967 32h-32.067c-17.655 0-31.967-14.601-31.967-31.857v-0.362h-32v0.184c0 35.365 28.605 64.035 64.156 64.035h31.688c35.432 0 64.156-28.407 64.156-64 0-35.346-28.407-64-64-64h-31.7c-17.839 0-32.3-14.204-32.3-32 0-17.673 14.165-32 31.967-32h32.067c17.655 0 31.967 14.502 31.967 32h32c0-35.346-28.605-64-64.156-64h-31.688zM704.156 416c-35.432 0-64.156 28.407-64.156 64 0 35.346 28.407 64 64 64h31.7c17.839 0 32.3 14.204 32.3 32 0 17.673-14.165 32-31.967 32h-32.067c-17.655 0-31.967-14.601-31.967-31.857v-0.362h-32v0.184c0 35.365 28.605 64.035 64.156 64.035h31.688c35.432 0 64.156-28.407 64.156-64 0-35.346-28.407-64-64-64h-31.7c-17.839 0-32.3-14.204-32.3-32 0-17.673 14.165-32 31.967-32h32.067c17.655 0 31.967 14.502 31.967 32h32c0-35.346-28.605-64-64.156-64h-31.688z" /></g></svg>