<?xml version="1.0" encoding="utf-8"?><!DOCTYPE svg PUBLIC "-//W3C//DTD SVG 1.1//EN" "http://www.w3.org/Graphics/SVG/1.1/DTD/svg11.dtd"><svg version="1.1" xmlns="http://www.w3.org/2000/svg" xmlns:xlink="http://www.w3.org/1999/xlink" width="32" height="32" viewBox="0 0 32 32" data-tags="file-css"><g fill="#444" transform="scale(0.03125 0.03125)"><path d="M256.219 320h543.562c53.467 0 96.219 42.963 96.219 95.961v224.078c0 53.009-43.079 95.961-96.219 95.961h-543.562c-53.467 0-96.219-42.963-96.219-95.961v-224.078c0-53.009 43.079-95.961 96.219-95.961zM416 576l-32 0.006c0 17.795-14.312 31.994-31.967 31.994h-32.067c-17.801 0-31.967-14.324-31.967-31.994v-96.012c0-17.795 14.312-31.994 31.967-31.994h32.067c17.801 0 31.967 14.324 31.967 32h32c-0.102-35.364-28.668-64-64.156-64h-31.688c-35.432 0-64.156 28.37-64.156 64.189v95.621c0 35.451 28.605 64.189 64.156 64.189h31.688c35.37 0 64.055-28.27 64.156-64zM512.156 416c-35.432 0-64.156 28.407-64.156 64 0 35.346 28.407 64 64 64h31.7c17.839 0 32.3 14.204 32.3 32 0 17.673-14.165 32-31.967 32h-32.067c-17.655 0-31.967-14.601-31.967-31.857v-0.362h-32v0.184c0 35.365 28.605 64.035 64.156 64.035h31.688c35.432 0 64.156-28.407 64.156-64 0-35.346-28.407-64-64-64h-31.7c-17.839 0-32.3-14.204-32.3-32 0-17.673 14.165-32 31.967-32h32.067c17.655 0 31.967 14.502 31.967 32h32c0-35.346-28.605-64-64.156-64h-31.688zM704.156 416c-35.432 0-64.156 28.407-64.156 64 0 35.346 28.407 64 64 64h31.7c17.839 0 32.3 14.204 32.3 32 0 17.673-14.165 32-31.967 32h-32.067c-17.655 0-31.967-14.601-31.967-31.857v-0.362h-32v0.184c0 35.365 28.605 64.035 64.156 64.035h31.688c35.432 0 64.156-28.407 64.156-64 0-35.346-28.407-64-64-64h-31.7c-17.839 0-32.3-14.204-32.3-32 0-17.673 14.165-32 31.967-32h32.067c17.655 0 31.967 14.502 31.967 32h32c0-35.346-28.605-64-64.156-64h-31.688z" /></g></svg>