<?xml version="1.0" encoding="utf-8"?><!DOCTYPE svg PUBLIC "-//W3C//DTD SVG 1.1//EN" "http://www.w3.org/Graphics/SVG/1.1/DTD/svg11.dtd"><svg version="1.1" xmlns="http://www.w3.org/2000/svg" xmlns:xlink="http://www.w3.org/1999/xlink" width="32" height="32" viewBox="0 0 32 32" data-tags="document-file-css"><g fill="#444" transform="scale(0.03125 0.03125)"><path d="M672 416v-96l-192-224h-351.912c-35.395 0-64.088 28.747-64.088 64.235v735.531c0 35.476 28.51 64.235 63.918 64.235h480.165c35.301 0 63.918-28.743 63.918-63.705v-64.295h255.781c53.14 0 96.219-42.952 96.219-95.961v-224.078c0-52.998-42.752-95.961-96.219-95.961h-255.781zM640 832v64.211c0 17.55-14.326 31.789-31.999 31.789h-480.003c-17.448 0-31.999-14.262-31.999-31.855v-736.291c0-17.286 14.264-31.855 31.858-31.855h320.142v159.811c0 35.82 28.624 64.189 63.933 64.189h128.067v64h-255.781c-53.14 0-96.219 42.952-96.219 95.961v224.078c0 52.998 42.752 95.961 96.219 95.961h255.781zM480 144l150.398 176h-118.503c-17.475 0-31.896-14.453-31.896-32.281v-143.719zM383.826 448h544.348c34.951 0 63.826 28.539 63.826 63.745v224.511c0 34.939-28.576 63.745-63.826 63.745h-544.348c-34.951 0-63.826-28.539-63.826-63.745v-224.511c0-34.939 28.576-63.745 63.826-63.745zM544 672c-0.101 35.73-28.786 64-64.156 64h-31.688c-35.551 0-64.156-28.739-64.156-64.189v-95.621c0-35.82 28.724-64.189 64.156-64.189h31.688c35.488 0 64.054 28.636 64.156 64h-32c0-17.676-14.165-32-31.967-32h-32.067c-17.655 0-31.967 14.199-31.967 31.994v96.012c0 17.67 14.165 31.994 31.967 31.994h32.067c17.655 0 31.967-14.199 31.967-31.994l32-0.006zM640.156 512c-35.432 0-64.156 28.407-64.156 64 0 35.346 28.407 64 64 64h31.7c17.839 0 32.3 14.204 32.3 32 0 17.673-14.165 32-31.967 32h-32.067c-17.655 0-31.967-14.601-31.967-31.857v-0.362h-32v0.184c0 35.365 28.605 64.035 64.156 64.035h31.688c35.432 0 64.156-28.407 64.156-64 0-35.346-28.407-64-64-64h-31.7c-17.839 0-32.3-14.204-32.3-32 0-17.673 14.165-32 31.967-32h32.067c17.655 0 31.967 14.502 31.967 32h32c0-35.346-28.605-64-64.156-64h-31.688zM832.156 512c-35.432 0-64.156 28.407-64.156 64 0 35.346 28.407 64 64 64h31.7c17.839 0 32.3 14.204 32.3 32 0 17.673-14.165 32-31.967 32h-32.067c-17.655 0-31.967-14.601-31.967-31.857v-0.362h-32v0.184c0 35.365 28.605 64.035 64.156 64.035h31.688c35.432 0 64.156-28.407 64.156-64 0-35.346-28.407-64-64-64h-31.7c-17.839 0-32.3-14.204-32.3-32 0-17.673 14.165-32 31.967-32h32.067c17.655 0 31.967 14.502 31.967 32h32c0-35.346-28.605-64-64.156-64h-31.688z" /></g></svg>