<?xml version="1.0" encoding="utf-8"?><!DOCTYPE svg PUBLIC "-//W3C//DTD SVG 1.1//EN" "http://www.w3.org/Graphics/SVG/1.1/DTD/svg11.dtd"><svg version="1.1" xmlns="http://www.w3.org/2000/svg" xmlns:xlink="http://www.w3.org/1999/xlink" width="32" height="32" viewBox="0 0 32 32" data-tags="document-file-css"><g fill="#444" transform="scale(0.03125 0.03125)"><path d="M672 832v64.082c0 35.408-28.617 63.918-63.918 63.918h-480.165c-35.408 0-63.918-28.759-63.918-64.235v-735.531c0-35.488 28.776-64.235 64.273-64.235h319.727v192.061c0 35.565 28.739 63.939 64.189 63.939h159.811v64h-287.781c-53.14 0-96.219 42.952-96.219 95.961v224.078c0 52.998 42.752 95.961 96.219 95.961h287.781zM480 96v191.906c0 17.725 14.431 32.094 31.705 32.094h160.295l-192-224zM383.826 448h544.348c34.951 0 63.826 28.539 63.826 63.745v224.511c0 34.939-28.576 63.745-63.826 63.745h-544.348c-34.951 0-63.826-28.539-63.826-63.745v-224.511c0-34.939 28.576-63.745 63.826-63.745zM544 672l-32 0.006c0 17.795-14.312 31.994-31.967 31.994h-32.067c-17.801 0-31.967-14.324-31.967-31.994v-96.012c0-17.795 14.312-31.994 31.967-31.994h32.067c17.801 0 31.967 14.324 31.967 32h32c-0.102-35.364-28.668-64-64.156-64h-31.688c-35.432 0-64.156 28.37-64.156 64.189v95.621c0 35.451 28.605 64.189 64.156 64.189h31.688c35.37 0 64.055-28.27 64.156-64zM640.156 512c-35.432 0-64.156 28.407-64.156 64 0 35.346 28.407 64 64 64h31.7c17.839 0 32.3 14.204 32.3 32 0 17.673-14.165 32-31.967 32h-32.067c-17.655 0-31.967-14.601-31.967-31.857v-0.362h-32v0.184c0 35.365 28.605 64.035 64.156 64.035h31.688c35.432 0 64.156-28.407 64.156-64 0-35.346-28.407-64-64-64h-31.7c-17.839 0-32.3-14.204-32.3-32 0-17.673 14.165-32 31.967-32h32.067c17.655 0 31.967 14.502 31.967 32h32c0-35.346-28.605-64-64.156-64h-31.688zM832.156 512c-35.432 0-64.156 28.407-64.156 64 0 35.346 28.407 64 64 64h31.7c17.839 0 32.3 14.204 32.3 32 0 17.673-14.165 32-31.967 32h-32.067c-17.655 0-31.967-14.601-31.967-31.857v-0.362h-32v0.184c0 35.365 28.605 64.035 64.156 64.035h31.688c35.432 0 64.156-28.407 64.156-64 0-35.346-28.407-64-64-64h-31.7c-17.839 0-32.3-14.204-32.3-32 0-17.673 14.165-32 31.967-32h32.067c17.655 0 31.967 14.502 31.967 32h32c0-35.346-28.605-64-64.156-64h-31.688z" /></g></svg>