<?xml version="1.0" encoding="utf-8"?><!DOCTYPE svg PUBLIC "-//W3C//DTD SVG 1.1//EN" "http://www.w3.org/Graphics/SVG/1.1/DTD/svg11.dtd"><svg version="1.1" xmlns="http://www.w3.org/2000/svg" xmlns:xlink="http://www.w3.org/1999/xlink" width="20" height="20" viewBox="0 0 20 20" data-tags="github-with-circle"><g fill="#444" transform="scale(0.01953125 0.01953125)"><path d="M512.768 509.389c0 0-0.512 0-0.768 0h-0.768c-60.979 0-114.688-15.514-146.483 13.722-18.995 17.51-26.982 38.605-26.982 61.286 0 94.822 75.93 106.496 173.517 106.496h1.485c97.536 0 173.517-11.725 173.517-106.496 0-22.682-7.987-43.827-26.982-61.286-31.846-29.235-85.555-13.722-146.534-13.722zM429.722 638.976c-18.586 0-33.587-20.89-33.587-46.592s15.002-46.49 33.587-46.49c18.586 0 33.638 20.787 33.638 46.49 0.051 25.702-15.002 46.592-33.638 46.592zM594.227 638.976c-18.586 0-33.638-20.89-33.638-46.592s15.053-46.49 33.638-46.49c18.534 0 33.587 20.787 33.587 46.49 0.051 25.702-15.002 46.592-33.587 46.592zM512 20.48c-271.462 0-491.52 220.058-491.52 491.52s220.058 491.52 491.52 491.52 491.52-220.058 491.52-491.52-220.058-491.52-491.52-491.52zM556.851 713.677c-8.806 0-26.317 0-44.851 0.102-18.534-0.102-36.045-0.102-44.851-0.102-38.912 0-193.126-3.021-193.126-188.877 0-42.701 14.643-73.984 38.656-100.096-3.789-9.421-3.994-63.078 16.384-114.483 0 0 46.899 5.12 117.811 53.811 14.797-4.147 39.987-6.246 65.126-6.246s50.278 2.099 65.178 6.195c70.912-48.691 117.811-53.811 117.811-53.811 20.378 51.405 20.224 105.114 16.384 114.483 24.013 26.112 38.656 57.395 38.656 100.096-0.051 185.958-154.266 188.928-193.178 188.928z" /></g></svg>