<?xml version="1.0" encoding="utf-8"?><!DOCTYPE svg PUBLIC "-//W3C//DTD SVG 1.1//EN" "http://www.w3.org/Graphics/SVG/1.1/DTD/svg11.dtd"><svg version="1.1" xmlns="http://www.w3.org/2000/svg" xmlns:xlink="http://www.w3.org/1999/xlink" width="32" height="32" viewBox="0 0 32 32" data-tags="csswizardry"><g fill="#444" transform="scale(0.03125 0.03125)"><path fill="rgb(244, 48, 89)" d="M1.28 700.928v-653.227c0-26.368 21.333-47.701 47.659-47.701h923.861c26.624 0 47.787 21.333 47.787 47.787v629.76c-28.587-17.493-62.293-26.283-100.565-26.283-53.504 0-94.080 12.8-121.771 38.229-27.733 25.515-41.387 56.661-41.387 94.933 0 41.387 14.080 72.107 42.667 91.733 16.64 12.16 47.36 23.040 91.307 32.512l44.8 10.24c26.88 5.675 45.653 12.8 58.027 19.627 11.947 7.808 18.347 18.645 18.347 32.64 0 24.149-12.373 40.747-37.12 48.981l-1.28 0.683h-94.293c-12.245-4.437-21.76-10.837-29.44-19.2-7.68-9.557-12.8-23.467-15.36-43.221h-84.48c0 24.149 4.395 44.587 14.080 63.147h-71.68c8.107-16.64 12.8-35.115 12.8-56.192 0-37.547-12.8-66.133-37.803-86.016-15.957-12.672-40.107-22.827-72.021-30.592l-73.387-17.152c-28.16-5.973-46.507-11.947-55.467-17.067-13.227-7.68-19.627-19.2-19.627-33.707 0-16.213 6.827-29.013 20.053-37.973 14.080-8.96 32-13.227 55.040-13.227 20.907 0 37.547 3.84 51.627 11.093 21.077 10.923 32 29.44 33.707 54.912h85.333c-1.28-44.629-17.707-79.061-49.067-102.571-31.744-23.467-69.333-35.627-113.92-35.627-53.547 0-93.653 12.8-121.728 37.547-27.307 24.875-41.387 56.747-41.387 94.293 0 41.387 14.080 72.021 42.667 91.733 17.152 11.52 47.787 22.315 91.733 32.427l44.587 10.24c26.027 5.76 45.227 12.16 58.027 19.84 11.947 7.68 18.347 18.347 18.347 32.427 0 24.32-12.8 40.107-37.547 49.067h-95.573c-12.117-4.523-22.187-10.923-29.44-19.84-7.68-9.387-13.227-24.064-15.787-43.264h-86.059c0 23.808 4.48 44.8 13.653 63.147h-89.173c14.080-22.187 23.595-47.787 28.288-76.373h-87.595c-5.973 21.76-13.312 38.315-22.4 49.067-11.093 14.080-25.6 23.040-43.52 27.52h-52.352c-19.2-4.48-35.712-15.275-49.067-32.427-19.797-23.808-29.355-59.477-29.355-106.667 0-47.787 9.813-84.053 28.16-110.080 19.2-26.155 43.947-38.827 76.373-38.827 32 0 55.467 8.96 72.107 27.477 8.96 10.24 16.64 25.6 22.187 45.909h88.747c-1.28-26.368-11.093-52.907-29.269-79.36-32.939-46.933-85.077-70.4-156.331-70.4-49.493 0-91.051 15.36-124.16 45.227zM1020.757 856.064v-66.304h-22.016c-1.493-25.472-12.8-43.605-33.408-54.357-13.355-6.997-30.592-10.581-50.901-10.581-23.040 0-40.747 4.693-54.187 13.739-13.312 9.173-20.395 22.101-20.395 38.485 0 15.147 7.083 26.453 20.352 33.92 9.387 4.48 27.733 10.837 55.893 17.237l73.387 17.493c12.8 2.56 23.893 6.4 34.133 9.813z" /></g></svg>